<?xml version="1.0" encoding="UTF-8" standalone="no"?>
<!-- Created with Inkscape (http://www.inkscape.org/) -->

<svg
   xmlns:dc="http://purl.org/dc/elements/1.1/"
   xmlns:cc="http://creativecommons.org/ns#"
   xmlns:rdf="http://www.w3.org/1999/02/22-rdf-syntax-ns#"
   xmlns:svg="http://www.w3.org/2000/svg"
   xmlns="http://www.w3.org/2000/svg"
   xmlns:sodipodi="http://sodipodi.sourceforge.net/DTD/sodipodi-0.dtd"
   xmlns:inkscape="http://www.inkscape.org/namespaces/inkscape"
   width="210mm"
   height="297mm"
   viewBox="0 0 210 297"
   version="1.1"
   id="svg8"
   inkscape:version="0.92.3 (2405546, 2018-03-11)"
   sodipodi:docname="wy.svg">
  <sodipodi:namedview
     id="base"
     pagecolor="#ffffff"
     bordercolor="#666666"
     borderopacity="1.0"
     inkscape:pageopacity="0.0"
     inkscape:pageshadow="2"
     inkscape:zoom="1.979899"
     inkscape:cx="190.32332"
     inkscape:cy="669.47493"
     inkscape:document-units="mm"
     inkscape:current-layer="layer1"
     showgrid="false"
     inkscape:snap-midpoints="true"
     inkscape:snap-smooth-nodes="true"
     inkscape:object-paths="true"
     inkscape:snap-intersection-paths="true"
     inkscape:window-width="1916"
     inkscape:window-height="1041"
     inkscape:window-x="1366"
     inkscape:window-y="18"
     inkscape:window-maximized="0" />
  <defs
     id="defs2">
    <marker
       inkscape:isstock="true"
       style="overflow:visible;"
       id="marker1428"
       refX="0.0"
       refY="0.0"
       orient="auto"
       inkscape:stockid="Arrow2Mend">
      <path
         transform="scale(0.6) rotate(180) translate(0,0)"
         d="M 8.7185878,4.0337352 L -2.2072895,0.016013256 L 8.7185884,-4.0017078 C 6.9730900,-1.6296469 6.9831476,1.6157441 8.7185878,4.0337352 z "
         style="fill-rule:evenodd;stroke-width:0.625;stroke-linejoin:round;stroke:#000000;stroke-opacity:1;fill:#000000;fill-opacity:1"
         id="path1426" />
    </marker>
    <marker
       inkscape:isstock="true"
       style="overflow:visible"
       id="marker1364"
       refX="0.0"
       refY="0.0"
       orient="auto"
       inkscape:stockid="Arrow2Mstart">
      <path
         transform="scale(0.6) translate(0,0)"
         d="M 8.7185878,4.0337352 L -2.2072895,0.016013256 L 8.7185884,-4.0017078 C 6.9730900,-1.6296469 6.9831476,1.6157441 8.7185878,4.0337352 z "
         style="fill-rule:evenodd;stroke-width:0.625;stroke-linejoin:round;stroke:#000000;stroke-opacity:1;fill:#000000;fill-opacity:1"
         id="path1362" />
    </marker>
    <marker
       inkscape:stockid="Arrow2Mend"
       orient="auto"
       refY="0.0"
       refX="0.0"
       id="Arrow2Mend"
       style="overflow:visible;"
       inkscape:isstock="true"
       inkscape:collect="always">
      <path
         id="path901"
         style="fill-rule:evenodd;stroke-width:0.625;stroke-linejoin:round;stroke:#000000;stroke-opacity:1;fill:#000000;fill-opacity:1"
         d="M 8.7185878,4.0337352 L -2.2072895,0.016013256 L 8.7185884,-4.0017078 C 6.9730900,-1.6296469 6.9831476,1.6157441 8.7185878,4.0337352 z "
         transform="scale(0.6) rotate(180) translate(0,0)" />
    </marker>
    <marker
       inkscape:stockid="Arrow1Mend"
       orient="auto"
       refY="0.0"
       refX="0.0"
       id="Arrow1Mend"
       style="overflow:visible;"
       inkscape:isstock="true">
      <path
         id="path883"
         d="M 0.0,0.0 L 5.0,-5.0 L -12.5,0.0 L 5.0,5.0 L 0.0,0.0 z "
         style="fill-rule:evenodd;stroke:#000000;stroke-width:1pt;stroke-opacity:1;fill:#000000;fill-opacity:1"
         transform="scale(0.4) rotate(180) translate(10,0)" />
    </marker>
    <marker
       inkscape:stockid="Arrow2Mstart"
       orient="auto"
       refY="0.0"
       refX="0.0"
       id="Arrow2Mstart"
       style="overflow:visible"
       inkscape:isstock="true"
       inkscape:collect="always">
      <path
         id="path898"
         style="fill-rule:evenodd;stroke-width:0.625;stroke-linejoin:round;stroke:#000000;stroke-opacity:1;fill:#000000;fill-opacity:1"
         d="M 8.7185878,4.0337352 L -2.2072895,0.016013256 L 8.7185884,-4.0017078 C 6.9730900,-1.6296469 6.9831476,1.6157441 8.7185878,4.0337352 z "
         transform="scale(0.6) translate(0,0)" />
    </marker>
    <marker
       inkscape:stockid="Arrow1Lend"
       orient="auto"
       refY="0.0"
       refX="0.0"
       id="Arrow1Lend"
       style="overflow:visible;"
       inkscape:isstock="true">
      <path
         id="path877"
         d="M 0.0,0.0 L 5.0,-5.0 L -12.5,0.0 L 5.0,5.0 L 0.0,0.0 z "
         style="fill-rule:evenodd;stroke:#000000;stroke-width:1pt;stroke-opacity:1;fill:#000000;fill-opacity:1"
         transform="scale(0.8) rotate(180) translate(12.5,0)" />
    </marker>
    <marker
       inkscape:stockid="Arrow1Lstart"
       orient="auto"
       refY="0.0"
       refX="0.0"
       id="Arrow1Lstart"
       style="overflow:visible"
       inkscape:isstock="true">
      <path
         id="path874"
         d="M 0.0,0.0 L 5.0,-5.0 L -12.5,0.0 L 5.0,5.0 L 0.0,0.0 z "
         style="fill-rule:evenodd;stroke:#000000;stroke-width:1pt;stroke-opacity:1;fill:#000000;fill-opacity:1"
         transform="scale(0.8) translate(12.5,0)" />
    </marker>
    <marker
       inkscape:stockid="Arrow1Lstart"
       orient="auto"
       refY="0"
       refX="0"
       id="Arrow1Lstart-5"
       style="overflow:visible"
       inkscape:isstock="true">
      <path
         inkscape:connector-curvature="0"
         id="path874-9"
         d="M 0,0 5,-5 -12.5,0 5,5 Z"
         style="fill:#000000;fill-opacity:1;fill-rule:evenodd;stroke:#000000;stroke-width:1.00000003pt;stroke-opacity:1"
         transform="matrix(0.8,0,0,0.8,10,0)" />
    </marker>
  </defs>
  <metadata
     id="metadata5">
    <rdf:RDF>
      <cc:Work
         rdf:about="">
        <dc:format>image/svg+xml</dc:format>
        <dc:type
           rdf:resource="http://purl.org/dc/dcmitype/StillImage" />
        <dc:title></dc:title>
      </cc:Work>
    </rdf:RDF>
  </metadata>
  <g
     inkscape:label="Layer 1"
     inkscape:groupmode="layer"
     id="layer1">
    <rect
       style="fill:none;stroke:#000000;stroke-width:0.14809582;stroke-miterlimit:4;stroke-dasharray:none"
       id="rect815"
       width="29.851904"
       height="29.851904"
       x="30.074047"
       y="97.074051" />
    <rect
       style="fill:none;stroke:#000000;stroke-width:0.14809582;stroke-miterlimit:4;stroke-dasharray:none"
       id="rect815-3"
       width="29.851906"
       height="29.851906"
       x="60.074047"
       y="97.074043" />
    <rect
       style="fill:none;stroke:#000000;stroke-width:0.14809582;stroke-miterlimit:4;stroke-dasharray:none"
       id="rect815-3-6"
       width="29.851906"
       height="29.851906"
       x="90.074051"
       y="97.074043" />
    <path
       style="fill:none;stroke:#000000;stroke-width:0.26458332px;stroke-linecap:butt;stroke-linejoin:miter;stroke-opacity:1"
       d="M 30.074047,106.68899 59.925949,112"
       id="path847"
       inkscape:connector-curvature="0" />
    <path
       style="fill:none;stroke:#000000;stroke-width:0.26458332px;stroke-linecap:butt;stroke-linejoin:miter;stroke-opacity:1"
       d="m 60.074047,108.0119 29.851905,-3.77976"
       id="path849"
       inkscape:connector-curvature="0" />
    <path
       style="fill:none;stroke:#000000;stroke-width:0.26458332px;stroke-linecap:butt;stroke-linejoin:miter;stroke-opacity:1"
       d="m 89.925952,108.20089 30.000008,7.55952"
       id="path851"
       inkscape:connector-curvature="0" />
    <path
       style="fill:none;stroke:#000000;stroke-width:0.26458332px;stroke-linecap:butt;stroke-linejoin:miter;stroke-opacity:1"
       d="m 51.982626,110.58679 v 16.33916"
       id="path853"
       inkscape:connector-curvature="0" />
    <path
       style="fill:none;stroke:#000000;stroke-width:0.26458332px;stroke-linecap:butt;stroke-linejoin:miter;stroke-opacity:1"
       d="m 81.902945,105.24799 v 21.67796"
       id="path855"
       inkscape:connector-curvature="0" />
    <path
       style="fill:none;stroke:#000000;stroke-width:0.15;stroke-linecap:butt;stroke-linejoin:miter;stroke-opacity:1;stroke-miterlimit:4;stroke-dasharray:none;marker-start:url(#Arrow2Mstart);marker-end:url(#Arrow2Mend)"
       d="m 51.850287,129.86771 h 8.418991"
       id="path857"
       inkscape:connector-curvature="0" />
    <path
       style="fill:none;stroke:#000000;stroke-width:0.15;stroke-linecap:butt;stroke-linejoin:miter;stroke-opacity:1;stroke-miterlimit:4;stroke-dasharray:none;marker-start:url(#marker1364);marker-end:url(#marker1428)"
       d="m 81.686092,129.86771 h 8.41899"
       id="path857-7"
       inkscape:connector-curvature="0" />
    <flowRoot
       xml:space="preserve"
       id="flowRoot1891"
       style="font-style:normal;font-variant:normal;font-weight:normal;font-stretch:normal;font-size:10.66666698px;line-height:1.25;font-family:Ubuntu;-inkscape-font-specification:Ubuntu;letter-spacing:0px;word-spacing:0px;fill:#000000;fill-opacity:1;stroke:none"
       transform="matrix(0.26458333,0,0,0.26458333,0.13363476,1.9799784)"><flowRegion
         id="flowRegion1893"><rect
           id="rect1895"
           width="23.738592"
           height="16.162445"
           x="152.53304"
           y="441.67685" /></flowRegion><flowPara
         id="flowPara1897">i -1, j</flowPara></flowRoot>    <flowRoot
       xml:space="preserve"
       id="flowRoot1891-8"
       style="font-style:normal;font-variant:normal;font-weight:normal;font-stretch:normal;font-size:10.66666698px;line-height:1.25;font-family:Ubuntu;-inkscape-font-specification:Ubuntu;letter-spacing:0px;word-spacing:0px;fill:#000000;fill-opacity:1;stroke:none"
       transform="matrix(0.26458333,0,0,0.26458333,31.247099,1.9799784)"><flowRegion
         id="flowRegion1893-0"><rect
           id="rect1895-1"
           width="23.738592"
           height="16.162445"
           x="152.53304"
           y="441.67685" /></flowRegion><flowPara
         id="flowPara1897-7">i , j</flowPara></flowRoot>    <flowRoot
       xml:space="preserve"
       id="flowRoot1891-9"
       style="font-style:normal;font-variant:normal;font-weight:normal;font-stretch:normal;font-size:10.66666698px;line-height:1.25;font-family:Ubuntu;-inkscape-font-specification:Ubuntu;letter-spacing:0px;word-spacing:0px;fill:#000000;fill-opacity:1;stroke:none"
       transform="matrix(0.26458333,0,0,0.26458333,61.949511,1.9799784)"><flowRegion
         id="flowRegion1893-1"><rect
           id="rect1895-0"
           width="27.27412"
           height="16.162445"
           x="152.53304"
           y="441.67685" /></flowRegion><flowPara
         id="flowPara1897-3">i +1, j</flowPara></flowRoot>    <path
       style="fill:#00ff00;stroke:#000000;stroke-width:0.28634244;stroke-miterlimit:4;stroke-dasharray:none"
       d="m 197.39439,449.15567 c 0,-28.29214 0.0518,-30.05083 0.88389,-30.0314 0.48613,0.0114 6.90691,1.09914 14.2684,2.41731 l 13.38452,2.39665 0.13058,27.63474 0.13059,27.63473 h -14.39899 -14.39899 z"
       id="path1949"
       inkscape:connector-curvature="0"
       transform="scale(0.26458333)" />
    <path
       style="fill:#ff0000;stroke:#000000;stroke-width:0.28634244;stroke-miterlimit:4;stroke-dasharray:none"
       d="m 310.53148,438.8016 c 0,-22.22335 0.0568,-40.40781 0.12627,-40.4099 0.0694,-0.002 6.37658,-0.79587 14.01586,-1.76397 7.63928,-0.96809 14.06006,-1.76188 14.26841,-1.76396 0.20834,-0.002 0.3788,18.97444 0.3788,42.17007 v 42.17386 h -14.39467 -14.39467 z"
       id="path1951"
       inkscape:connector-curvature="0"
       transform="scale(0.26458333)" />
    <path
       style="fill:none;stroke:#000000;stroke-width:0.20206274;stroke-linecap:butt;stroke-linejoin:miter;stroke-miterlimit:4;stroke-dasharray:none;stroke-opacity:1;marker-start:url(#Arrow1Lstart)"
       d="M 63.620591,113.97388 H 56.527503"
       id="path1953"
       inkscape:connector-curvature="0" />
    <path
       style="fill:none;stroke:#000000;stroke-width:0.20206274;stroke-linecap:butt;stroke-linejoin:miter;stroke-miterlimit:4;stroke-dasharray:none;stroke-opacity:1;marker-start:url(#Arrow1Lstart-5)"
       d="M 93.620595,113.97388 H 86.527507"
       id="path1953-4"
       inkscape:connector-curvature="0" />
    <g
       id="g3150"
       transform="matrix(0.16515543,0,0,0.16515543,36.678885,118.36155)">
      <g
         word-spacing="normal"
         letter-spacing="normal"
         font-size-adjust="none"
         font-stretch="normal"
         font-weight="normal"
         font-variant="normal"
         font-style="normal"
         stroke-miterlimit="10.433"
         xml:space="preserve"
         transform="matrix(0.3,0,0,-0.3,-52.5,222.75)"
         id="g3148"
         style="font-style:normal;font-variant:normal;font-weight:normal;font-stretch:normal;letter-spacing:normal;word-spacing:normal;text-anchor:start;fill:none;fill-opacity:1;fill-rule:evenodd;stroke:#000000;stroke-linecap:butt;stroke-linejoin:miter;stroke-miterlimit:10.43299961;stroke-dasharray:none;stroke-dashoffset:0;stroke-opacity:1"><path
           id="path3120"
           d="m 481.18,366.87 v -0.01 h 0.01 v 0 l 0.01,-0.01 v 0 l 0.01,-0.01 h 0.01 l 0.01,-0.01 v -0.01 h 0.01 l 0.02,-0.02 0.02,-0.02 0.02,-0.02 0.02,-0.02 0.03,-0.02 0.02,-0.02 0.02,-0.03 0.03,-0.02 0.02,-0.02 0.05,-0.05 0.03,-0.03 0.02,-0.02 0.02,-0.03 0.03,-0.02 0.02,-0.02 0.02,-0.02 0.02,-0.02 0.02,-0.02 0.02,-0.02 0.01,-0.01 h 0.01 v -0.01 l 0.01,-0.01 h 0.01 v -0.01 h 0.01 l 0.01,-0.01 v 0 h 0.01 v -0.01 0 h 0.01 v 0 h 1.11 c 0.14,0 0.55,0.05 0.55,0.5 0,0.2 -0.11,0.3 -0.21,0.45 -1.79,1.8 -4.48,4.53 -7.58,10.02 -5.37,9.56 -7.37,21.87 -7.37,33.83 0,22.12 6.28,35.12 15,43.93 0.16,0.16 0.16,0.3 0.16,0.41 0,0.5 -0.36,0.5 -0.96,0.5 -0.64,0 -0.75,0 -1.2,-0.41 -4.72,-4.07 -10.06,-11.01 -13.5,-21.51 -2.14,-6.58 -3.28,-14.61 -3.28,-22.88 0,-11.81 2.14,-25.15 9.97,-36.71 1.34,-1.94 3.18,-3.99 3.18,-4.04 0.5,-0.59 1.19,-1.4 1.6,-1.75 z"
           inkscape:connector-curvature="0"
           style="fill:#000000;stroke-width:0" /><path
           id="path3122"
           d="m 502.72,401.56 0.05,-0.19 0.07,-0.19 0.06,-0.18 0.08,-0.17 0.08,-0.17 0.09,-0.17 0.09,-0.16 0.1,-0.16 0.11,-0.15 0.11,-0.14 0.12,-0.14 0.12,-0.14 0.13,-0.13 0.13,-0.12 0.14,-0.12 0.14,-0.11 0.15,-0.11 0.15,-0.1 0.16,-0.09 0.16,-0.09 0.16,-0.08 0.17,-0.07 0.17,-0.07 0.18,-0.06 0.18,-0.05 0.18,-0.05 0.18,-0.04 0.19,-0.04 0.2,-0.02 0.19,-0.02 0.2,-0.01 0.2,-0.01 c 1.73,0 2.89,1.15 3.68,2.74 0.85,1.8 1.49,4.84 1.49,4.94 0,0.5 -0.44,0.5 -0.6,0.5 -0.5,0 -0.54,-0.21 -0.7,-0.91 -0.69,-2.78 -1.64,-6.17 -3.73,-6.17 -1.05,0 -1.53,0.65 -1.53,2.3 0,1.09 0.59,3.43 0.98,5.17 l 1.41,5.39 c 0.14,0.75 0.64,2.64 0.84,3.39 0.25,1.14 0.75,3.03 0.75,3.33 0,0.9 -0.7,1.34 -1.45,1.34 -0.25,0 -1.55,-0.05 -1.94,-1.73 -0.95,-3.64 -3.14,-12.36 -3.74,-15 -0.06,-0.21 -2.04,-4.19 -5.68,-4.19 -2.6,0 -3.1,2.25 -3.1,4.09 0,2.78 1.41,6.72 2.71,10.16 0.59,1.5 0.84,2.19 0.84,3.14 0,2.23 -1.59,4.08 -4.09,4.08 -4.74,0 -6.58,-7.22 -6.58,-7.67 0,-0.5 0.5,-0.5 0.61,-0.5 0.5,0 0.55,0.1 0.79,0.9 1.24,4.33 3.15,6.17 5.04,6.17 0.43,0 1.25,-0.04 1.25,-1.64 0,-1.2 -0.57,-2.64 -0.86,-3.39 -1.85,-4.94 -2.89,-8.01 -2.89,-10.45 0,-4.74 3.43,-5.99 6.14,-5.99 3.28,0 5.08,2.24 5.92,3.35 z"
           inkscape:connector-curvature="0"
           style="fill:#000000;stroke-width:0" /><path
           id="path3124"
           d="m 525.14,408.18 v 0.05 l -0.01,0.06 v 0.05 l -0.01,0.05 -0.01,0.06 -0.02,0.06 -0.02,0.05 -0.01,0.06 -0.03,0.05 -0.02,0.06 -0.03,0.06 -0.03,0.05 -0.03,0.05 -0.04,0.06 -0.04,0.05 -0.04,0.05 -0.04,0.05 -0.05,0.04 -0.05,0.05 -0.05,0.04 -0.06,0.04 -0.06,0.04 -0.06,0.04 -0.06,0.03 -0.07,0.03 -0.07,0.02 -0.08,0.02 -0.08,0.02 -0.08,0.02 -0.08,0.01 -0.09,0.01 h -0.09 c -0.94,0 -1.95,-0.91 -1.95,-1.92 0,-0.6 0.45,-1.33 1.4,-1.33 1,0 1.96,0.98 1.96,1.92 z"
           inkscape:connector-curvature="0"
           style="fill:#000000;stroke-width:0" /><path
           id="path3126"
           d="m 518.03,390.48 -0.06,-0.17 -0.05,-0.17 -0.03,-0.09 -0.02,-0.08 -0.03,-0.09 -0.02,-0.09 -0.02,-0.08 -0.02,-0.1 -0.02,-0.09 -0.02,-0.1 -0.01,-0.09 v -0.06 l -0.01,-0.05 v -0.05 -0.05 -0.06 -0.05 c 0,-1.64 1.38,-2.96 3.29,-2.96 3.49,0 5.03,4.8 5.03,5.33 0,0.46 -0.45,0.46 -0.56,0.46 -0.48,0 -0.53,-0.21 -0.67,-0.6 -0.8,-2.78 -2.33,-4.22 -3.69,-4.22 -0.7,0 -0.87,0.46 -0.87,1.22 0,0.8 0.25,1.47 0.56,2.24 0.34,0.93 0.73,1.87 1.11,2.78 0.31,0.84 1.58,4.01 1.72,4.44 0.09,0.34 0.2,0.76 0.2,1.1 0,1.65 -1.39,2.96 -3.31,2.96 -3.46,0 -5.05,-4.74 -5.05,-5.33 0,-0.45 0.49,-0.45 0.59,-0.45 0.49,0 0.52,0.17 0.63,0.56 0.9,3 2.44,4.25 3.72,4.25 0.56,0 0.87,-0.28 0.87,-1.22 0,-0.8 -0.2,-1.33 -1.07,-3.48 z"
           inkscape:connector-curvature="0"
           style="fill:#000000;stroke-width:0" /><path
           id="path3128"
           d="m 553.8,394.27 h 0.05 0.06 0.11 l 0.12,0.01 h 0.06 l 0.06,0.01 h 0.05 l 0.06,0.01 0.06,0.01 0.06,0.01 0.05,0.01 0.06,0.01 0.05,0.02 0.06,0.02 0.05,0.02 0.05,0.02 0.04,0.03 0.05,0.03 0.04,0.03 0.04,0.04 0.04,0.04 0.02,0.02 0.01,0.02 0.02,0.02 0.01,0.03 0.02,0.02 0.01,0.03 0.01,0.02 0.01,0.03 0.01,0.03 0.01,0.03 0.01,0.03 0.01,0.03 0.01,0.03 v 0.04 l 0.01,0.03 v 0.04 0.04 0.04 c 0,0.86 -0.79,0.86 -1.39,0.86 h -20.77 c -0.56,0 -1.38,0 -1.38,-0.83 0,-0.88 0.79,-0.88 1.38,-0.88 z"
           inkscape:connector-curvature="0"
           style="fill:#000000;stroke-width:0" /><path
           id="path3130"
           d="m 575,415.68 v 0.04 0.03 0.03 0.04 0.03 0.03 0.02 0.03 l -0.01,0.03 v 0.02 0.03 0.02 l -0.01,0.02 v 0.03 0.02 l -0.01,0.02 v 0.02 0.02 l -0.01,0.03 -0.01,0.03 -0.02,0.03 -0.01,0.03 -0.02,0.02 -0.02,0.02 -0.02,0.02 -0.03,0.02 -0.02,0.01 -0.03,0.01 -0.04,0.01 -0.03,0.01 -0.04,0.01 -0.04,0.01 h -0.02 -0.03 -0.02 l -0.02,0.01 h -0.03 -0.02 -0.03 -0.03 -0.03 -0.03 -0.03 -0.03 -0.04 -0.03 -0.03 -0.04 -0.04 -0.04 c -1.76,-1.59 -4.53,-1.59 -5.03,-1.59 h -0.42 v -1.09 h 0.42 c 0.58,0 2.19,0.06 3.64,0.68 v -12.45 c 0,-0.77 0,-1.05 -2.64,-1.05 h -1.25 v -1.09 c 1.38,0.09 3.6,0.09 5.03,0.09 1.46,0 3.68,0 5.04,-0.09 v 1.09 h -1.24 c -2.64,0 -2.64,0.28 -2.64,1.05 z"
           inkscape:connector-curvature="0"
           style="fill:#000000;stroke-width:0" /><polyline
           id="polyline3132"
           points="565,394 582.04,394 582.04,395.8 565,395.8 "
           style="fill:#000000;fill-rule:nonzero;stroke-width:0" /><path
           id="path3134"
           d="m 579.75,379.21 h -1.05 c -0.08,-0.48 -0.32,-2.01 -0.72,-2.26 -0.2,-0.16 -2.29,-0.16 -2.67,-0.16 h -4.87 c 1.64,1.22 3.48,2.61 4.98,3.61 2.24,1.55 4.33,3 4.33,5.64 0,3.19 -3.02,4.95 -6.58,4.95 -3.36,0 -5.83,-1.95 -5.83,-4.39 0,-1.3 1.1,-1.51 1.46,-1.51 0.67,0 1.47,0.45 1.47,1.46 0,0.9 -0.66,1.4 -1.43,1.47 0.69,1.13 2.14,1.88 3.82,1.88 2.4,0 4.42,-1.45 4.42,-3.89 0,-2.1 -1.44,-3.69 -3.36,-5.31 l -6.08,-5.16 c -0.25,-0.22 -0.26,-0.22 -0.3,-0.39 v -0.75 h 11.58 z"
           inkscape:connector-curvature="0"
           style="fill:#000000;stroke-width:0" /><path
           id="path3136"
           d="m 595.36,386.96 -0.01,-0.36 -0.01,-0.37 -0.03,-0.38 -0.04,-0.38 -0.03,-0.2 -0.04,-0.19 -0.03,-0.2 -0.05,-0.2 -0.05,-0.19 -0.05,-0.2 -0.07,-0.2 -0.07,-0.21 -0.07,-0.2 -0.08,-0.2 -0.09,-0.2 -0.1,-0.21 -0.11,-0.2 -0.11,-0.21 -0.13,-0.21 -0.13,-0.2 -0.14,-0.21 -0.15,-0.21 -0.16,-0.2 -0.17,-0.21 -0.19,-0.21 -0.19,-0.21 -0.2,-0.21 -0.22,-0.2 c -0.14,-0.14 -0.25,-0.25 -0.25,-0.43 0,-0.25 0.28,-0.48 0.49,-0.48 0.48,0 3.45,2.78 3.45,6.92 0,2.17 -0.85,3.8 -2.44,3.8 -1.16,0 -1.98,-0.91 -1.98,-1.99 0,-1.11 0.79,-2.01 2.01,-2.01 0.85,0 1.39,0.56 1.44,0.56 z"
           inkscape:connector-curvature="0"
           style="fill:#000000;stroke-width:0" /><path
           id="path3138"
           d="m 615.18,408.18 -0.01,0.06 v 0.05 l -0.01,0.06 -0.01,0.06 -0.01,0.06 -0.01,0.05 -0.02,0.06 -0.02,0.06 -0.02,0.05 -0.03,0.06 -0.03,0.06 -0.03,0.05 -0.03,0.05 -0.04,0.06 -0.04,0.05 -0.04,0.05 -0.04,0.04 -0.05,0.05 -0.05,0.04 -0.05,0.04 -0.06,0.04 -0.06,0.04 -0.06,0.03 -0.06,0.03 -0.07,0.03 -0.07,0.03 -0.07,0.02 -0.08,0.02 -0.07,0.01 -0.08,0.01 -0.09,0.01 h -0.09 c -1.01,0 -1.95,-0.99 -1.95,-1.92 0,-0.57 0.42,-1.33 1.39,-1.33 0.94,0 1.96,0.9 1.96,1.92 z"
           inkscape:connector-curvature="0"
           style="fill:#000000;stroke-width:0" /><path
           id="path3140"
           d="m 607.78,384.7 -0.05,-0.23 -0.07,-0.22 -0.07,-0.22 -0.08,-0.22 -0.09,-0.21 -0.09,-0.21 -0.1,-0.2 -0.11,-0.2 -0.11,-0.2 -0.12,-0.19 -0.12,-0.18 -0.13,-0.18 -0.13,-0.18 -0.13,-0.16 -0.15,-0.16 -0.14,-0.16 -0.15,-0.15 -0.16,-0.14 -0.16,-0.13 -0.16,-0.12 -0.16,-0.12 -0.17,-0.11 -0.17,-0.09 -0.18,-0.09 -0.18,-0.08 -0.18,-0.08 -0.18,-0.06 -0.18,-0.05 -0.19,-0.04 -0.19,-0.02 -0.19,-0.02 -0.19,-0.01 c -0.45,0 -0.87,0.07 -1.27,0.21 0.91,0.42 1.19,1.25 1.19,1.78 0,0.83 -0.65,1.28 -1.36,1.28 -1.08,0 -1.98,-0.94 -1.98,-2.05 0,-1.33 1.36,-2.2 3.45,-2.2 2.1,0 6.16,1.25 7.25,5.5 l 3.13,12.48 c 0.11,0.38 0.17,0.69 0.17,1.22 0,1.91 -1.63,3.27 -3.72,3.27 -3.88,0 -6.09,-4.85 -6.09,-5.33 0,-0.45 0.48,-0.45 0.59,-0.45 0.41,0 0.45,0.11 0.69,0.62 0.87,2.03 2.68,4.19 4.7,4.19 0.88,0 1.19,-0.59 1.19,-1.7 0,-0.39 -0.06,-0.88 -0.11,-1.05 z"
           inkscape:connector-curvature="0"
           style="fill:#000000;stroke-width:0" /><path
           id="path3142"
           d="m 641.48,411.16 -0.04,2.69 -0.12,2.71 -0.21,2.71 -0.3,2.71 -0.4,2.7 -0.5,2.69 -0.61,2.67 -0.71,2.64 -0.83,2.6 -0.46,1.28 -0.49,1.27 -0.52,1.27 -0.55,1.24 -0.59,1.23 -0.62,1.22 -0.65,1.2 -0.68,1.19 -0.72,1.16 -0.76,1.15 -0.79,1.12 -0.83,1.11 -0.86,1.09 -0.9,1.06 c -0.7,0.79 -2.55,2.73 -3.74,3.78 -0.35,0.31 -0.45,0.31 -1.1,0.31 -0.5,0 -0.94,0 -0.94,-0.5 0,-0.2 0.2,-0.41 0.29,-0.5 1.69,-1.75 4.4,-4.48 7.47,-9.97 5.4,-9.56 7.38,-21.87 7.38,-33.83 0,-21.62 -5.98,-34.82 -14.94,-43.93 -0.11,-0.11 -0.2,-0.25 -0.2,-0.41 0,-0.5 0.44,-0.5 0.94,-0.5 0.65,0 0.75,0 1.2,0.41 4.73,4.07 10.06,11 13.5,21.51 2.19,6.83 3.28,14.91 3.28,22.92 z"
           inkscape:connector-curvature="0"
           style="fill:#000000;stroke-width:0" /><path
           id="path3144"
           d="m 680.82,433.54 -0.04,0.06 -0.03,0.06 -0.02,0.05 -0.03,0.06 -0.03,0.05 -0.03,0.04 -0.02,0.05 -0.03,0.04 -0.03,0.04 -0.02,0.04 -0.03,0.04 -0.03,0.04 -0.03,0.03 -0.03,0.03 -0.03,0.03 -0.03,0.03 -0.03,0.02 -0.04,0.03 -0.03,0.02 -0.04,0.02 -0.04,0.02 -0.05,0.02 -0.04,0.01 -0.05,0.01 -0.06,0.02 -0.05,0.01 -0.06,0.01 h -0.06 l -0.07,0.01 h -0.07 -0.07 -0.08 c -0.84,0 -0.94,-0.25 -1.28,-0.89 l -0.31,-4.09 13.4,-26.91 h -26.86 l 13.46,26.91 0.31,4.09 -16.84,-33.78 c -0.25,-0.45 -0.25,-0.55 -0.25,-0.59 0,-0.41 0.29,-0.41 1.09,-0.41 h 34.58 c 0.79,0 1.09,0 1.09,0.41 0,0.04 0,0.14 -0.25,0.59 z"
           inkscape:connector-curvature="0"
           style="fill:#000000;stroke-width:0" /><path
           id="path3146"
           d="m 710.59,418.68 h 4.68 c 0.99,0 1.49,0 1.49,1 0,0.55 -0.5,0.55 -1.39,0.55 h -4.39 c 1.79,7.08 2.04,8.08 2.04,8.38 0,0.84 -0.59,1.34 -1.43,1.34 -0.16,0 -1.55,-0.05 -2,-1.8 l -1.94,-7.92 h -4.69 c -1,0 -1.5,0 -1.5,-0.94 0,-0.61 0.41,-0.61 1.41,-0.61 h 4.37 c -3.58,-14.14 -3.78,-14.98 -3.78,-15.89 0,-2.68 1.89,-4.58 4.58,-4.58 5.08,0 7.92,7.27 7.92,7.68 0,0.5 -0.39,0.5 -0.59,0.5 -0.46,0 -0.5,-0.16 -0.75,-0.71 -2.14,-5.17 -4.78,-6.37 -6.47,-6.37 -1.05,0 -1.55,0.65 -1.55,2.3 0,1.18 0.1,1.54 0.3,2.39 z"
           inkscape:connector-curvature="0"
           style="fill:#000000;stroke-width:0" /></g>    </g>
    <g
       transform="matrix(0.16513761,0,0,0.16514205,66.935215,118.36306)"
       id="g3319">
      <g
         style="font-style:normal;font-variant:normal;font-weight:normal;font-stretch:normal;letter-spacing:normal;word-spacing:normal;text-anchor:start;fill:none;fill-opacity:1;fill-rule:evenodd;stroke:#000000;stroke-linecap:butt;stroke-linejoin:miter;stroke-miterlimit:10.43299961;stroke-dasharray:none;stroke-dashoffset:0;stroke-opacity:1"
         id="content"
         transform="matrix(0.3,0,0,-0.3,-52.5,222.75)"
         xml:space="preserve"
         stroke-miterlimit="10.433"
         font-style="normal"
         font-variant="normal"
         font-weight="normal"
         font-stretch="normal"
         font-size-adjust="none"
         letter-spacing="normal"
         word-spacing="normal"><path
           style="fill:#000000;stroke-width:0"
           inkscape:connector-curvature="0"
           d="m 481.18,366.87 v -0.01 h 0.01 v 0 l 0.01,-0.01 v 0 l 0.01,-0.01 h 0.01 l 0.01,-0.01 v -0.01 h 0.01 l 0.02,-0.02 0.02,-0.02 0.02,-0.02 0.02,-0.02 0.03,-0.02 0.02,-0.02 0.02,-0.03 0.03,-0.02 0.02,-0.02 0.05,-0.05 0.03,-0.03 0.02,-0.02 0.02,-0.03 0.03,-0.02 0.02,-0.02 0.02,-0.02 0.02,-0.02 0.02,-0.02 0.02,-0.02 0.01,-0.01 h 0.01 v -0.01 l 0.01,-0.01 h 0.01 v -0.01 h 0.01 l 0.01,-0.01 v 0 h 0.01 v -0.01 0 h 0.01 v 0 h 1.11 c 0.14,0 0.55,0.05 0.55,0.5 0,0.2 -0.11,0.3 -0.21,0.45 -1.79,1.8 -4.48,4.53 -7.58,10.02 -5.37,9.56 -7.37,21.87 -7.37,33.83 0,22.12 6.28,35.12 15,43.93 0.16,0.16 0.16,0.3 0.16,0.41 0,0.5 -0.36,0.5 -0.96,0.5 -0.64,0 -0.75,0 -1.2,-0.41 -4.72,-4.07 -10.06,-11.01 -13.5,-21.51 -2.14,-6.58 -3.28,-14.61 -3.28,-22.88 0,-11.81 2.14,-25.15 9.97,-36.71 1.34,-1.94 3.18,-3.99 3.18,-4.04 0.5,-0.59 1.19,-1.4 1.6,-1.75 z"
           id="path3290" /><path
           style="fill:#000000;stroke-width:0"
           inkscape:connector-curvature="0"
           d="m 502.72,401.56 0.05,-0.19 0.07,-0.19 0.06,-0.18 0.08,-0.17 0.08,-0.17 0.09,-0.17 0.09,-0.16 0.1,-0.16 0.11,-0.15 0.11,-0.14 0.12,-0.14 0.12,-0.14 0.13,-0.13 0.13,-0.12 0.14,-0.12 0.14,-0.11 0.15,-0.11 0.15,-0.1 0.16,-0.09 0.16,-0.09 0.16,-0.08 0.17,-0.07 0.17,-0.07 0.18,-0.06 0.18,-0.05 0.18,-0.05 0.18,-0.04 0.19,-0.04 0.2,-0.02 0.19,-0.02 0.2,-0.01 0.2,-0.01 c 1.73,0 2.89,1.15 3.68,2.74 0.85,1.8 1.49,4.84 1.49,4.94 0,0.5 -0.44,0.5 -0.6,0.5 -0.5,0 -0.54,-0.21 -0.7,-0.91 -0.69,-2.78 -1.64,-6.17 -3.73,-6.17 -1.05,0 -1.53,0.65 -1.53,2.3 0,1.09 0.59,3.43 0.98,5.17 l 1.41,5.39 c 0.14,0.75 0.64,2.64 0.84,3.39 0.25,1.14 0.75,3.03 0.75,3.33 0,0.9 -0.7,1.34 -1.45,1.34 -0.25,0 -1.55,-0.05 -1.94,-1.73 -0.95,-3.64 -3.14,-12.36 -3.74,-15 -0.06,-0.21 -2.04,-4.19 -5.68,-4.19 -2.6,0 -3.1,2.25 -3.1,4.09 0,2.78 1.41,6.72 2.71,10.16 0.59,1.5 0.84,2.19 0.84,3.14 0,2.23 -1.59,4.08 -4.09,4.08 -4.74,0 -6.58,-7.22 -6.58,-7.67 0,-0.5 0.5,-0.5 0.61,-0.5 0.5,0 0.55,0.1 0.79,0.9 1.24,4.33 3.15,6.17 5.04,6.17 0.43,0 1.25,-0.04 1.25,-1.64 0,-1.2 -0.57,-2.64 -0.86,-3.39 -1.85,-4.94 -2.89,-8.01 -2.89,-10.45 0,-4.74 3.43,-5.99 6.14,-5.99 3.28,0 5.08,2.24 5.92,3.35 z"
           id="path3292" /><path
           style="fill:#000000;stroke-width:0"
           inkscape:connector-curvature="0"
           d="m 525.14,408.18 v 0.05 l -0.01,0.06 v 0.05 l -0.01,0.05 -0.01,0.06 -0.02,0.06 -0.02,0.05 -0.01,0.06 -0.03,0.05 -0.02,0.06 -0.03,0.06 -0.03,0.05 -0.03,0.05 -0.04,0.06 -0.04,0.05 -0.04,0.05 -0.04,0.05 -0.05,0.04 -0.05,0.05 -0.05,0.04 -0.06,0.04 -0.06,0.04 -0.06,0.04 -0.06,0.03 -0.07,0.03 -0.07,0.02 -0.08,0.02 -0.08,0.02 -0.08,0.02 -0.08,0.01 -0.09,0.01 h -0.09 c -0.94,0 -1.95,-0.91 -1.95,-1.92 0,-0.6 0.45,-1.33 1.4,-1.33 1,0 1.96,0.98 1.96,1.92 z"
           id="path3294" /><path
           style="fill:#000000;stroke-width:0"
           inkscape:connector-curvature="0"
           d="m 518.03,390.48 -0.06,-0.17 -0.05,-0.17 -0.03,-0.09 -0.02,-0.08 -0.03,-0.09 -0.02,-0.09 -0.02,-0.08 -0.02,-0.1 -0.02,-0.09 -0.02,-0.1 -0.01,-0.09 v -0.06 l -0.01,-0.05 v -0.05 -0.05 -0.06 -0.05 c 0,-1.64 1.38,-2.96 3.29,-2.96 3.49,0 5.03,4.8 5.03,5.33 0,0.46 -0.45,0.46 -0.56,0.46 -0.48,0 -0.53,-0.21 -0.67,-0.6 -0.8,-2.78 -2.33,-4.22 -3.69,-4.22 -0.7,0 -0.87,0.46 -0.87,1.22 0,0.8 0.25,1.47 0.56,2.24 0.34,0.93 0.73,1.87 1.11,2.78 0.31,0.84 1.58,4.01 1.72,4.44 0.09,0.34 0.2,0.76 0.2,1.1 0,1.65 -1.39,2.96 -3.31,2.96 -3.46,0 -5.05,-4.74 -5.05,-5.33 0,-0.45 0.49,-0.45 0.59,-0.45 0.49,0 0.52,0.17 0.63,0.56 0.9,3 2.44,4.25 3.72,4.25 0.56,0 0.87,-0.28 0.87,-1.22 0,-0.8 -0.2,-1.33 -1.07,-3.48 z"
           id="path3296" /><path
           style="fill:#000000;stroke-width:0"
           inkscape:connector-curvature="0"
           d="m 544.02,394.27 h 10.66 c 0.45,0 1.28,0 1.28,0.85 0,0.86 -0.8,0.86 -1.28,0.86 h -10.66 v 10.7 c 0,0.45 0,1.28 -0.84,1.28 -0.88,0 -0.88,-0.8 -0.88,-1.28 v -10.7 h -10.69 c -0.45,0 -1.29,0 -1.29,-0.83 0,-0.88 0.79,-0.88 1.29,-0.88 h 10.69 v -10.7 c 0,-0.45 0,-1.28 0.85,-1.28 0.87,0 0.87,0.8 0.87,1.28 z"
           id="path3298" /><path
           style="fill:#000000;stroke-width:0"
           inkscape:connector-curvature="0"
           d="m 574.4,415.68 v 0.04 0.03 0.03 0.04 0.03 0.03 0.02 0.03 0.03 l -0.01,0.02 v 0.03 0.02 0.02 l -0.01,0.03 v 0.02 0.02 l -0.01,0.02 v 0.02 l -0.01,0.03 -0.01,0.03 -0.02,0.03 -0.01,0.03 -0.02,0.02 -0.02,0.02 -0.02,0.02 -0.02,0.02 -0.03,0.01 -0.03,0.01 -0.03,0.01 -0.04,0.01 -0.04,0.01 -0.04,0.01 h -0.02 -0.02 -0.03 l -0.02,0.01 h -0.03 -0.02 -0.03 -0.03 -0.03 -0.03 -0.03 -0.03 -0.03 -0.04 -0.03 -0.04 -0.04 -0.03 c -1.77,-1.59 -4.53,-1.59 -5.03,-1.59 h -0.43 v -1.09 h 0.43 c 0.57,0 2.18,0.06 3.63,0.68 v -12.45 c 0,-0.77 0,-1.05 -2.63,-1.05 h -1.25 v -1.09 c 1.37,0.09 3.59,0.09 5.03,0.09 1.45,0 3.67,0 5.03,-0.09 v 1.09 h -1.24 c -2.64,0 -2.64,0.28 -2.64,1.05 z"
           id="path3300" /><polyline
           style="fill:#000000;fill-rule:nonzero;stroke-width:0"
           points="564,394 581.04,394 581.04,395.8 564,395.8 "
           id="polyline3302" /><path
           style="fill:#000000;stroke-width:0"
           inkscape:connector-curvature="0"
           d="m 579.15,379.21 h -1.05 c -0.07,-0.48 -0.32,-2.01 -0.71,-2.26 -0.21,-0.16 -2.3,-0.16 -2.67,-0.16 h -4.88 c 1.64,1.22 3.48,2.61 4.98,3.61 2.24,1.55 4.33,3 4.33,5.64 0,3.19 -3.01,4.95 -6.58,4.95 -3.35,0 -5.82,-1.95 -5.82,-4.39 0,-1.3 1.09,-1.51 1.45,-1.51 0.67,0 1.47,0.45 1.47,1.46 0,0.9 -0.66,1.4 -1.42,1.47 0.68,1.13 2.14,1.88 3.81,1.88 2.41,0 4.42,-1.45 4.42,-3.89 0,-2.1 -1.44,-3.69 -3.36,-5.31 l -6.08,-5.16 c -0.25,-0.22 -0.26,-0.22 -0.29,-0.39 v -0.75 h 11.57 z"
           id="path3304" /><path
           style="fill:#000000;stroke-width:0"
           inkscape:connector-curvature="0"
           d="m 594.76,386.96 -0.01,-0.36 -0.01,-0.37 -0.03,-0.38 -0.05,-0.38 -0.02,-0.2 -0.04,-0.19 -0.04,-0.2 -0.04,-0.2 -0.05,-0.19 -0.06,-0.2 -0.06,-0.2 -0.07,-0.21 -0.07,-0.2 -0.09,-0.2 -0.09,-0.2 -0.09,-0.21 -0.11,-0.2 -0.12,-0.21 -0.12,-0.21 -0.13,-0.2 -0.14,-0.21 -0.15,-0.21 -0.17,-0.2 -0.17,-0.21 -0.18,-0.21 -0.19,-0.21 -0.21,-0.21 -0.21,-0.2 c -0.14,-0.14 -0.25,-0.25 -0.25,-0.43 0,-0.25 0.28,-0.48 0.48,-0.48 0.49,0 3.46,2.78 3.46,6.92 0,2.17 -0.85,3.8 -2.44,3.8 -1.16,0 -1.99,-0.91 -1.99,-1.99 0,-1.11 0.8,-2.01 2.02,-2.01 0.84,0 1.39,0.56 1.44,0.56 z"
           id="path3306" /><path
           style="fill:#000000;stroke-width:0"
           inkscape:connector-curvature="0"
           d="m 614.57,408.18 v 0.06 0.05 l -0.01,0.06 -0.01,0.06 -0.01,0.06 -0.01,0.05 -0.02,0.06 -0.02,0.06 -0.02,0.05 -0.03,0.06 -0.03,0.06 -0.03,0.05 -0.03,0.05 -0.04,0.06 -0.04,0.05 -0.04,0.05 -0.04,0.04 -0.05,0.05 -0.05,0.04 -0.05,0.04 -0.06,0.04 -0.06,0.04 -0.06,0.03 -0.06,0.03 -0.07,0.03 -0.07,0.03 -0.07,0.02 -0.08,0.02 -0.08,0.01 -0.08,0.01 -0.08,0.01 h -0.09 c -1.01,0 -1.95,-0.99 -1.95,-1.92 0,-0.57 0.42,-1.33 1.39,-1.33 0.94,0 1.95,0.9 1.95,1.92 z"
           id="path3308" /><path
           style="fill:#000000;stroke-width:0"
           inkscape:connector-curvature="0"
           d="m 607.18,384.7 -0.06,-0.23 -0.06,-0.22 -0.08,-0.22 -0.08,-0.22 -0.08,-0.21 -0.1,-0.21 -0.09,-0.2 -0.11,-0.2 -0.11,-0.2 -0.12,-0.19 -0.12,-0.18 -0.13,-0.18 -0.13,-0.18 -0.14,-0.16 -0.14,-0.16 -0.14,-0.16 -0.15,-0.15 -0.16,-0.14 -0.16,-0.13 -0.16,-0.12 -0.16,-0.12 -0.17,-0.11 -0.18,-0.09 -0.17,-0.09 -0.18,-0.08 -0.18,-0.08 -0.18,-0.06 -0.18,-0.05 -0.19,-0.04 -0.19,-0.02 -0.19,-0.02 -0.19,-0.01 c -0.45,0 -0.88,0.07 -1.27,0.21 0.91,0.42 1.19,1.25 1.19,1.78 0,0.83 -0.65,1.28 -1.36,1.28 -1.08,0 -1.98,-0.94 -1.98,-2.05 0,-1.33 1.36,-2.2 3.45,-2.2 2.09,0 6.16,1.25 7.25,5.5 l 3.12,12.48 c 0.12,0.38 0.18,0.69 0.18,1.22 0,1.91 -1.63,3.27 -3.72,3.27 -3.88,0 -6.09,-4.85 -6.09,-5.33 0,-0.45 0.48,-0.45 0.59,-0.45 0.41,0 0.45,0.11 0.69,0.62 0.87,2.03 2.68,4.19 4.7,4.19 0.87,0 1.19,-0.59 1.19,-1.7 0,-0.39 -0.07,-0.88 -0.11,-1.05 z"
           id="path3310" /><path
           style="fill:#000000;stroke-width:0"
           inkscape:connector-curvature="0"
           d="m 641,411.16 -0.04,2.69 -0.12,2.71 -0.21,2.71 -0.3,2.71 -0.4,2.7 -0.5,2.69 -0.61,2.67 -0.71,2.64 -0.83,2.6 -0.46,1.28 -0.49,1.27 -0.52,1.27 -0.55,1.24 -0.59,1.23 -0.62,1.22 -0.65,1.2 -0.68,1.19 -0.72,1.16 -0.76,1.15 -0.79,1.12 -0.83,1.11 -0.86,1.09 -0.9,1.06 c -0.7,0.79 -2.55,2.73 -3.74,3.78 -0.35,0.31 -0.45,0.31 -1.1,0.31 -0.5,0 -0.94,0 -0.94,-0.5 0,-0.2 0.2,-0.41 0.3,-0.5 1.68,-1.75 4.39,-4.48 7.46,-9.97 5.39,-9.56 7.38,-21.87 7.38,-33.83 0,-21.62 -5.99,-34.82 -14.94,-43.93 -0.11,-0.11 -0.2,-0.25 -0.2,-0.41 0,-0.5 0.44,-0.5 0.94,-0.5 0.65,0 0.75,0 1.2,0.41 4.73,4.07 10.06,11 13.5,21.51 2.19,6.83 3.28,14.91 3.28,22.92 z"
           id="path3312" /><path
           style="fill:#000000;stroke-width:0"
           inkscape:connector-curvature="0"
           d="m 680.34,433.54 -0.04,0.06 -0.03,0.06 -0.02,0.05 -0.03,0.06 -0.03,0.05 -0.03,0.04 -0.02,0.05 -0.03,0.04 -0.03,0.04 -0.02,0.04 -0.03,0.04 -0.03,0.04 -0.03,0.03 -0.03,0.03 -0.03,0.03 -0.03,0.03 -0.03,0.02 -0.04,0.03 -0.03,0.02 -0.04,0.02 -0.05,0.02 -0.04,0.02 -0.05,0.01 -0.04,0.01 -0.06,0.02 -0.05,0.01 -0.06,0.01 h -0.06 l -0.07,0.01 h -0.07 -0.07 -0.08 c -0.84,0 -0.94,-0.25 -1.28,-0.89 l -0.31,-4.09 13.4,-26.91 h -26.86 l 13.46,26.91 0.31,4.09 -16.85,-33.78 c -0.25,-0.45 -0.25,-0.55 -0.25,-0.59 0,-0.41 0.3,-0.41 1.1,-0.41 h 34.58 c 0.79,0 1.09,0 1.09,0.41 0,0.04 0,0.14 -0.25,0.59 z"
           id="path3314" /><path
           style="fill:#000000;stroke-width:0"
           inkscape:connector-curvature="0"
           d="m 710.1,418.68 h 4.69 c 0.99,0 1.49,0 1.49,1 0,0.55 -0.5,0.55 -1.39,0.55 h -4.39 c 1.79,7.08 2.04,8.08 2.04,8.38 0,0.84 -0.59,1.34 -1.44,1.34 -0.15,0 -1.54,-0.05 -2,-1.8 l -1.93,-7.92 h -4.69 c -1,0 -1.5,0 -1.5,-0.94 0,-0.61 0.41,-0.61 1.41,-0.61 h 4.37 c -3.58,-14.14 -3.78,-14.98 -3.78,-15.89 0,-2.68 1.89,-4.58 4.58,-4.58 5.08,0 7.92,7.27 7.92,7.68 0,0.5 -0.39,0.5 -0.59,0.5 -0.46,0 -0.5,-0.16 -0.75,-0.71 -2.14,-5.17 -4.79,-6.37 -6.47,-6.37 -1.05,0 -1.55,0.65 -1.55,2.3 0,1.18 0.1,1.54 0.3,2.39 z"
           id="path3316" /></g>    </g>
  </g>
</svg>
